<?xml version="1.0" encoding="UTF-8"?>
<svg width="20px" height="84px" viewBox="0 0 20 84" version="1.1" xmlns="http://www.w3.org/2000/svg" xmlns:xlink="http://www.w3.org/1999/xlink">
    <!-- Generator: Sketch 47.1 (45422) - http://www.bohemiancoding.com/sketch -->
    <title>Artboard</title>
    <desc>Created with Sketch.</desc>
    <defs></defs>
    <g id="Page-1" stroke="none" stroke-width="1" fill="none" fill-rule="evenodd">
        <g id="Artboard" fill="#000000">
            <g id="Group" opacity="0.049999997" transform="translate(15.000000, 80.000000)">
                <rect id="Rectangle-Copy-3" x="0" y="0" width="1" height="1"></rect>
            </g>
            <g id="Group-Copy-8" opacity="0.199999988" transform="translate(0.000000, 40.000000)">
                <rect id="Rectangle" x="0" y="0" width="1" height="1"></rect>
                <rect id="Rectangle-Copy-2" x="10" y="0" width="1" height="1"></rect>
                <rect id="Rectangle-Copy" x="5" y="0" width="1" height="1"></rect>
                <rect id="Rectangle-Copy-3" x="15" y="0" width="1" height="1"></rect>
            </g>
            <g id="Group-Copy-4" opacity="0.149999991" transform="translate(0.000000, 60.000000)">
                <rect id="Rectangle" x="0" y="0" width="1" height="1"></rect>
                <rect id="Rectangle-Copy-2" x="10" y="0" width="1" height="1"></rect>
                <rect id="Rectangle-Copy" x="5" y="0" width="1" height="1"></rect>
                <rect id="Rectangle-Copy-3" x="15" y="0" width="1" height="1"></rect>
            </g>
            <g id="Group-Copy-9" opacity="0.199999988" transform="translate(0.000000, 20.000000)">
                <rect id="Rectangle" x="0" y="0" width="1" height="1"></rect>
                <rect id="Rectangle-Copy-2" x="10" y="0" width="1" height="1"></rect>
                <rect id="Rectangle-Copy" x="5" y="0" width="1" height="1"></rect>
                <rect id="Rectangle-Copy-3" x="15" y="0" width="1" height="1"></rect>
            </g>
            <g id="Group-Copy-2" opacity="0.100000001" transform="translate(0.000000, 70.000000)">
                <rect id="Rectangle" x="0" y="0" width="1" height="1"></rect>
                <rect id="Rectangle-Copy-2" x="10" y="0" width="1" height="1"></rect>
                <rect id="Rectangle-Copy" x="5" y="0" width="1" height="1"></rect>
                <rect id="Rectangle-Copy-3" x="15" y="0" width="1" height="1"></rect>
            </g>
            <g id="Group-Copy-10" opacity="0.199999988" transform="translate(0.000000, 30.000000)">
                <rect id="Rectangle" x="0" y="0" width="1" height="1"></rect>
                <rect id="Rectangle-Copy-2" x="10" y="0" width="1" height="1"></rect>
                <rect id="Rectangle-Copy" x="5" y="0" width="1" height="1"></rect>
                <rect id="Rectangle-Copy-3" x="15" y="0" width="1" height="1"></rect>
            </g>
            <g id="Group-Copy-5" opacity="0.149999991" transform="translate(0.000000, 50.000000)">
                <rect id="Rectangle" x="0" y="0" width="1" height="1"></rect>
                <rect id="Rectangle-Copy" x="5" y="0" width="1" height="1"></rect>
                <rect id="Rectangle-Copy-3" x="15" y="0" width="1" height="1"></rect>
            </g>
            <g id="Group-Copy-11" opacity="0.199999988" transform="translate(0.000000, 10.000000)">
                <rect id="Rectangle" x="0" y="0" width="1" height="1"></rect>
                <rect id="Rectangle-Copy-2" x="10" y="0" width="1" height="1"></rect>
                <rect id="Rectangle-Copy" x="5" y="0" width="1" height="1"></rect>
                <rect id="Rectangle-Copy-3" x="15" y="0" width="1" height="1"></rect>
            </g>
            <g id="Group-Copy" opacity="0.049999997" transform="translate(0.000000, 75.000000)">
                <rect id="Rectangle" x="0" y="0" width="1" height="1"></rect>
                <rect id="Rectangle-Copy" x="5" y="0" width="1" height="1"></rect>
            </g>
            <g id="Group-Copy-12" opacity="0.199999988" transform="translate(0.000000, 35.000000)">
                <rect id="Rectangle" x="0" y="0" width="1" height="1"></rect>
                <rect id="Rectangle-Copy-2" x="10" y="0" width="1" height="1"></rect>
                <rect id="Rectangle-Copy" x="5" y="0" width="1" height="1"></rect>
                <rect id="Rectangle-Copy-3" x="15" y="0" width="1" height="1"></rect>
            </g>
            <g id="Group-Copy-6" opacity="0.149999991" transform="translate(0.000000, 55.000000)">
                <rect id="Rectangle" x="0" y="0" width="1" height="1"></rect>
                <rect id="Rectangle-Copy-2" x="10" y="0" width="1" height="1"></rect>
                <rect id="Rectangle-Copy" x="5" y="0" width="1" height="1"></rect>
                <rect id="Rectangle-Copy-3" x="15" y="0" width="1" height="1"></rect>
            </g>
            <g id="Group-Copy-13" opacity="0.199999988" transform="translate(0.000000, 15.000000)">
                <rect id="Rectangle" x="0" y="0" width="1" height="1"></rect>
                <rect id="Rectangle-Copy-2" x="10" y="0" width="1" height="1"></rect>
                <rect id="Rectangle-Copy" x="5" y="0" width="1" height="1"></rect>
                <rect id="Rectangle-Copy-3" x="15" y="0" width="1" height="1"></rect>
            </g>
            <g id="Group-Copy-3" opacity="0.100000001" transform="translate(0.000000, 65.000000)">
                <rect id="Rectangle" x="0" y="0" width="1" height="1"></rect>
                <rect id="Rectangle-Copy-2" x="10" y="0" width="1" height="1"></rect>
                <rect id="Rectangle-Copy-3" x="15" y="0" width="1" height="1"></rect>
            </g>
            <g id="Group-Copy-14" opacity="0.199999988" transform="translate(0.000000, 25.000000)">
                <rect id="Rectangle" x="0" y="0" width="1" height="1"></rect>
                <rect id="Rectangle-Copy-2" x="10" y="0" width="1" height="1"></rect>
                <rect id="Rectangle-Copy" x="5" y="0" width="1" height="1"></rect>
                <rect id="Rectangle-Copy-3" x="15" y="0" width="1" height="1"></rect>
            </g>
            <g id="Group-Copy-7" opacity="0.149999991" transform="translate(0.000000, 45.000000)">
                <rect id="Rectangle" x="0" y="0" width="1" height="1"></rect>
                <rect id="Rectangle-Copy-2" x="10" y="0" width="1" height="1"></rect>
                <rect id="Rectangle-Copy" x="5" y="0" width="1" height="1"></rect>
                <rect id="Rectangle-Copy-3" x="15" y="0" width="1" height="1"></rect>
            </g>
            <g id="Group-Copy-15" opacity="0.199999988" transform="translate(0.000000, 5.000000)">
                <rect id="Rectangle" x="0" y="0" width="1" height="1"></rect>
                <rect id="Rectangle-Copy-2" x="10" y="0" width="1" height="1"></rect>
                <rect id="Rectangle-Copy" x="5" y="0" width="1" height="1"></rect>
                <rect id="Rectangle-Copy-3" x="15" y="0" width="1" height="1"></rect>
            </g>
        </g>
    </g>
</svg>