<?xml version="1.0" encoding="UTF-8"?>
<svg width="228px" height="571px" viewBox="0 0 228 571" version="1.1" xmlns="http://www.w3.org/2000/svg" xmlns:xlink="http://www.w3.org/1999/xlink">
    <!-- Generator: Sketch 47.1 (45422) - http://www.bohemiancoding.com/sketch -->
    <title>Artboard Copy</title>
    <desc>Created with Sketch.</desc>
    <defs></defs>
    <g id="Page-1" stroke="none" stroke-width="1" fill="none" fill-rule="evenodd" opacity="0.049999997">
        <g id="Artboard-Copy" fill="#000000">
            <g id="Group" transform="translate(0.000000, -15.000000)">
                <polygon id="Triangle" transform="translate(29.500000, 183.500000) rotate(-48.000000) translate(-29.500000, -183.500000) " points="29.5 165 51 202 8 202"></polygon>
                <polygon id="Triangle-Copy" transform="translate(199.000000, 168.500000) rotate(-330.000000) translate(-199.000000, -168.500000) " points="199 149 223 188 175 188"></polygon>
                <polygon id="Triangle-Copy-3" transform="translate(199.500000, 105.000000) rotate(-75.000000) translate(-199.500000, -105.000000) " points="199.5 90 219 120 180 120"></polygon>
                <polygon id="Triangle-Copy-6" transform="translate(204.500000, 288.000000) rotate(-36.000000) translate(-204.500000, -288.000000) " points="204.5 272 223 304 186 304"></polygon>
                <polygon id="Triangle-Copy-10" transform="translate(60.500000, 389.000000) rotate(8.000000) translate(-60.500000, -389.000000) " points="60.5 373 79 405 42 405"></polygon>
                <polygon id="Triangle-Copy-7" transform="translate(28.500000, 37.000000) rotate(-33.000000) translate(-28.500000, -37.000000) " points="28.5 21 47 53 10 53"></polygon>
                <polygon id="Triangle-Copy-8" transform="translate(83.500000, 288.000000) rotate(-33.000000) translate(-83.500000, -288.000000) " points="83.5 272 102 304 65 304"></polygon>
                <polygon id="Triangle-Copy-9" transform="translate(144.500000, 227.000000) rotate(648.000000) translate(-144.500000, -227.000000) " points="144.5 210 164 244 125 244"></polygon>
                <polygon id="Triangle-Copy-4" transform="translate(75.500000, 525.500000) rotate(-75.000000) translate(-75.500000, -525.500000) " points="75.5 514 89 537 62 537"></polygon>
                <polygon id="Triangle-Copy-5" transform="translate(65.500000, 235.500000) rotate(-75.000000) translate(-65.500000, -235.500000) " points="65.5 224 79 247 52 247"></polygon>
                <polygon id="Polygon" transform="translate(55.500000, 105.000000) rotate(-30.000000) translate(-55.500000, -105.000000) " points="55.5 80 82 99.0983006 71.8779007 130 39.1220993 130 29 99.0983006"></polygon>
                <polygon id="Polygon-Copy" transform="translate(140.500000, 42.000000) rotate(289.000000) translate(-140.500000, -42.000000) " points="140.5 10 173 34.4458247 160.586105 74 120.413895 74 108 34.4458247"></polygon>
                <polygon id="Polygon-Copy-4" transform="translate(144.000000, 427.000000) rotate(289.000000) translate(-144.000000, -427.000000) " points="144 412 160 423.45898 153.888544 442 134.111456 442 128 423.45898"></polygon>
                <polygon id="Polygon-Copy-5" transform="translate(143.000000, 133.000000) rotate(242.000000) translate(-143.000000, -133.000000) " points="143 118 159 129.45898 152.888544 148 133.111456 148 127 129.45898"></polygon>
                <polygon id="Polygon-Copy-2" transform="translate(19.500000, 276.500000) rotate(325.000000) translate(-19.500000, -276.500000) " points="19.5 263 33 273.313082 27.8434588 290 11.1565412 290 6 273.313082"></polygon>
                <polygon id="Polygon-Copy-3" transform="translate(141.500000, 329.500000) rotate(325.000000) translate(-141.500000, -329.500000) " points="141.5 316 155 326.313082 149.843459 343 133.156541 343 128 326.313082"></polygon>
            </g>
        </g>
    </g>
</svg>